<?xml version="1.0" standalone="no"?>
<!DOCTYPE svg PUBLIC "-//W3C//DTD SVG 20010904//EN"
 "http://www.w3.org/TR/2001/REC-SVG-20010904/DTD/svg10.dtd">
<svg version="1.0" xmlns="http://www.w3.org/2000/svg"
 width="260.000000pt" height="260.000000pt" viewBox="0 0 260.000000 260.000000"
 preserveAspectRatio="xMidYMid meet">
<metadata>
Created by potrace 1.14, written by Peter Selinger 2001-2017
</metadata>
<g transform="translate(0.000000,260.000000) scale(0.100000,-0.100000)"
fill="#000000" stroke="none">
<path d="M1615 2352 c-74 -26 -134 -64 -190 -123 -51 -52 -49 -54 17 -13 45
28 156 67 169 59 16 -11 10 -103 -12 -167 -18 -53 -58 -123 -126 -218 -16 -21
-12 -20 31 10 127 91 205 250 206 418 0 47 -2 52 -22 52 -13 -1 -46 -8 -73
-18z"/>
<path d="M1580 1856 c-36 -8 -94 -26 -130 -39 -148 -56 -281 -55 -428 4 -161
64 -339 20 -480 -118 -70 -67 -68 -71 8 -17 116 83 246 102 407 61 188 -49
270 -46 463 13 189 58 265 60 377 10 42 -18 156 -100 169 -121 3 -6 -12 -26
-35 -46 -101 -86 -178 -237 -188 -368 -13 -172 75 -335 223 -410 30 -15 54
-32 54 -38 0 -18 -110 -219 -168 -306 -68 -102 -161 -199 -222 -230 -44 -22
-44 -22 -10 -16 107 21 248 134 342 274 42 64 168 305 168 323 0 4 -21 19 -47
34 -27 15 -76 54 -109 86 -83 79 -117 153 -122 265 -7 145 50 278 178 416 l64
70 -39 35 c-99 86 -187 121 -320 127 -55 3 -115 -1 -155 -9z"/>
<path d="M615 1310 c-9 -15 4 -30 26 -30 12 0 19 7 19 20 0 21 -33 29 -45 10z"/>
<path d="M900 1200 c0 -113 1 -120 20 -120 17 0 20 7 20 51 0 58 13 89 38 89
31 0 42 -22 42 -82 0 -52 2 -58 20 -58 19 0 21 5 18 77 -3 73 -5 78 -31 93
-25 14 -30 13 -57 -2 l-30 -17 0 44 c0 38 -3 45 -20 45 -19 0 -20 -7 -20 -120z"/>
<path d="M700 1195 c0 -107 1 -115 19 -115 16 0 20 8 23 38 2 20 9 38 16 38 6
1 26 2 42 3 66 2 93 79 45 126 -20 21 -34 25 -85 25 l-60 0 0 -115z m118 47
c5 -32 -15 -52 -49 -52 -27 0 -29 3 -29 41 l0 40 38 -3 c30 -2 38 -7 40 -26z"/>
<path d="M620 1170 c0 -83 1 -90 20 -90 19 0 20 7 20 90 0 83 -1 90 -20 90
-19 0 -20 -7 -20 -90z"/>
<path d="M1133 1250 c-49 -20 -60 -104 -18 -145 50 -51 145 -16 145 52 0 49
-12 73 -41 88 -31 17 -54 18 -86 5z m77 -80 c0 -76 -70 -76 -72 0 -1 40 25 64
53 49 14 -7 19 -21 19 -49z"/>
<path d="M1290 1170 c0 -83 1 -90 20 -90 18 0 20 7 20 59 0 62 14 86 47 79 14
-3 19 -16 23 -68 4 -58 7 -65 28 -68 21 -3 22 0 22 67 0 58 -4 75 -20 91 -24
24 -48 25 -78 4 -20 -14 -22 -14 -22 0 0 9 -9 16 -20 16 -19 0 -20 -7 -20 -90z"/>
<path d="M1505 1235 c-36 -35 -35 -105 1 -134 36 -28 77 -26 111 4 l28 24 -25
1 c-15 0 -31 -5 -38 -12 -15 -15 -62 5 -62 27 0 12 13 15 60 15 58 0 60 1 60
25 0 36 -42 75 -80 75 -19 0 -40 -9 -55 -25z m81 -22 c17 -17 17 -18 -4 -21
-12 -2 -32 -2 -44 0 -21 3 -21 4 -4 21 10 9 21 17 26 17 5 0 16 -8 26 -17z"/>
<path d="M652 998 c-12 -6 -25 -21 -28 -34 -11 -43 4 -62 64 -81 47 -15 58
-22 60 -42 8 -52 -62 -68 -105 -25 -30 30 -42 24 -19 -10 20 -32 74 -43 113
-24 21 10 29 21 31 46 4 39 -9 58 -46 66 -60 14 -82 28 -82 52 0 44 65 59 100
22 11 -12 23 -18 27 -14 12 12 -45 56 -70 55 -12 0 -32 -5 -45 -11z"/>
<path d="M1236 1002 c-3 -6 -1 -14 5 -17 15 -10 25 3 12 16 -7 7 -13 7 -17 1z"/>
<path d="M840 937 c-53 -27 -53 -125 0 -152 32 -17 72 -12 91 11 17 21 3 29
-16 10 -32 -32 -95 -7 -95 37 0 14 11 17 66 17 l66 0 -7 28 c-12 50 -60 73
-105 49z m74 -29 c24 -34 20 -38 -39 -38 -59 0 -68 10 -38 42 22 25 59 23 77
-4z"/>
<path d="M980 866 c0 -102 18 -117 22 -18 3 58 6 68 26 77 12 5 22 13 22 17 0
11 -12 10 -30 -2 -9 -5 -19 -5 -27 2 -10 8 -13 -7 -13 -76z"/>
<path d="M1070 943 c0 -4 12 -43 27 -86 18 -50 33 -77 41 -75 17 4 74 155 62
163 -5 3 -18 -25 -30 -62 -13 -38 -26 -71 -29 -76 -4 -4 -17 24 -30 63 -19 60
-41 99 -41 73z"/>
<path d="M1240 866 c0 -51 4 -86 10 -86 6 0 10 33 10 79 0 44 -4 83 -10 86 -6
4 -10 -25 -10 -79z"/>
<path d="M1333 940 c-45 -18 -59 -99 -24 -141 32 -39 121 -26 121 19 0 12 -5
11 -23 -6 -45 -43 -97 -16 -97 50 0 62 53 88 97 46 19 -18 23 -19 23 -5 0 18
-37 47 -60 46 -8 0 -25 -4 -37 -9z"/>
<path d="M1486 929 c-22 -17 -26 -29 -26 -68 0 -49 14 -70 52 -84 23 -8 75 10
82 29 7 18 -8 18 -24 -1 -27 -32 -90 -7 -90 36 0 17 7 19 60 19 57 0 60 1 60
24 0 27 -42 66 -70 66 -10 0 -29 -9 -44 -21z m75 -9 c10 -6 19 -20 19 -30 0
-17 -7 -20 -50 -20 -43 0 -50 3 -50 20 0 33 44 49 81 30z"/>
</g>
</svg>
